# xmcd
#
# Track frame offsets:
#	150
#	20751
#	37584
#	58161
#	73160
#	93043
#	107669
#	129599
#	156092
#	178374
#	198855
#	217572
#	238841
#	254144
#	270703
#	286447
#	306931
#	325169
#
# Disc length: 4656 seconds
#
# Revision: 1
# Processed by: cddbd v1.5.2PL0 Copyright (c) Steve Scherf et al.
# Submitted via: audiograbber 1.83.01
#
DISCID=08122e12
DTITLE=Brad Paisley - Norwegian Favorites
DYEAR=2010
DGENRE=Country
TTITLE0=Ticks
TTITLE1=Celebrity
TTITLE2=American Saturday Night
TTITLE3=Me Neither
TTITLE4=Water
TTITLE5=I'm Gonna Miss Her
TTITLE6=Alcohol
TTITLE7=Welcome to the Future
TTITLE8=Online
TTITLE9=Waitin' on a Woman
TTITLE10=I'm Still a Guy
TTITLE11=He didn't have to be
TTITLE12=Wrapped Around
TTITLE13=Little Moments
TTITLE14=Mud on The Tires
TTITLE15=Come On Over Tonight
TTITLE16=The World
TTITLE17=Then
EXTD=
EXTT0=
EXTT1=
EXTT2=
EXTT3=
EXTT4=
EXTT5=
EXTT6=
EXTT7=
EXTT8=
EXTT9=
EXTT10=
EXTT11=
EXTT12=
EXTT13=
EXTT14=
EXTT15=
EXTT16=
EXTT17=
PLAYORDER=
